<svg width="42" height="42" viewBox="0 0 42 42" fill="none" xmlns="http://www.w3.org/2000/svg">
    <g clip-path="url(#rt8ukr0rea)">
        <path d="M1.782 10.122-.01 7.2 11.565.106l1.791 2.933-11.574 7.083zm36.501 17.75-7.09 11.487 2.922 1.807 7.09-11.488-2.922-1.805zm-2.32-2.778L27.5 38.814a4.949 4.949 0 0 1-3.661 2.396c-.217.027-.435.04-.653.04a4.963 4.963 0 0 1-3.527-1.468l-1.655-1.655A8.164 8.164 0 0 1 6.636 26.754l-5.17-5.172a5.004 5.004 0 0 1 .777-7.71l13.34-8.164a14.372 14.372 0 0 1 16.688.84l3.252-3.252 2.43 2.43-3.265 3.266a14.521 14.521 0 0 1 1.275 16.102zM15.486 35.609l-6.346-6.35a4.674 4.674 0 0 0 .844 5.518 4.855 4.855 0 0 0 5.502.832zM31.16 10.14a11 11 0 0 0-13.75-1.509l-13.324 8.14a1.513 1.513 0 0 0-.641 1.116 1.547 1.547 0 0 0 .45 1.265l18.195 18.2a1.523 1.523 0 0 0 1.304.447 1.547 1.547 0 0 0 1.152-.758l8.456-13.704a11.077 11.077 0 0 0-1.842-13.197z" fill="#374957"/>
    </g>
    <defs>
        <clipPath id="rt8ukr0rea">
            <path fill="#fff" d="M0 0h41.25v41.25H0z"/>
        </clipPath>
    </defs>
</svg>
