<?xml version="1.0" encoding="UTF-8"?>
<svg xmlns="http://www.w3.org/2000/svg" xmlns:xlink="http://www.w3.org/1999/xlink" width="40px" height="40px" viewBox="0 0 40 40" version="1.1">
<g id="surface1">
<path style=" stroke:none;fill-rule:nonzero;fill:rgb(99.607843%,89.803922%,0%);fill-opacity:1;" d="M 40 20 C 40 31.046875 31.046875 40 20 40 C 8.953125 40 0 31.046875 0 20 C 0 8.953125 8.953125 0 20 0 C 31.046875 0 40 8.953125 40 20 Z M 40 20 "/>
<path style=" stroke:none;fill-rule:nonzero;fill:rgb(22.352941%,12.54902%,12.54902%);fill-opacity:1;" d="M 20.058594 9.652344 C 13.835938 9.652344 8.816406 13.667969 8.816406 18.539062 C 8.816406 21.703125 10.90625 24.472656 14.035156 26.054688 L 12.976562 30.015625 C 12.957031 30.074219 12.953125 30.136719 12.96875 30.199219 C 12.980469 30.257812 13.011719 30.316406 13.058594 30.359375 C 13.121094 30.414062 13.203125 30.445312 13.289062 30.449219 C 13.359375 30.441406 13.429688 30.414062 13.480469 30.367188 L 18.042969 27.292969 C 18.714844 27.386719 19.394531 27.433594 20.074219 27.4375 C 26.289062 27.4375 31.3125 23.421875 31.3125 18.539062 C 31.3125 13.660156 26.273438 9.652344 20.058594 9.652344 Z M 20.058594 9.652344 "/>
<path style=" stroke:none;fill-rule:nonzero;fill:rgb(99.607843%,89.803922%,0%);fill-opacity:1;" d="M 12.75 17.136719 L 11.523438 17.136719 C 11.371094 17.140625 11.21875 17.101562 11.089844 17.023438 C 11.03125 16.988281 10.980469 16.9375 10.941406 16.882812 C 10.902344 16.824219 10.878906 16.761719 10.863281 16.695312 C 10.859375 16.652344 10.859375 16.609375 10.863281 16.566406 C 10.859375 16.484375 10.875 16.40625 10.910156 16.332031 C 10.941406 16.261719 10.992188 16.195312 11.058594 16.148438 C 11.195312 16.046875 11.367188 15.992188 11.539062 15.996094 L 15.238281 15.996094 C 15.394531 15.988281 15.546875 16.03125 15.671875 16.117188 C 15.734375 16.152344 15.785156 16.199219 15.824219 16.253906 C 15.863281 16.3125 15.886719 16.375 15.898438 16.445312 C 15.902344 16.484375 15.902344 16.527344 15.898438 16.566406 C 15.902344 16.648438 15.886719 16.726562 15.851562 16.800781 C 15.820312 16.875 15.769531 16.941406 15.707031 16.992188 C 15.570312 17.09375 15.402344 17.144531 15.230469 17.136719 L 14.042969 17.136719 L 14.042969 21.359375 C 14.046875 21.449219 14.035156 21.539062 14.003906 21.621094 C 13.972656 21.707031 13.921875 21.785156 13.859375 21.847656 C 13.796875 21.910156 13.726562 21.957031 13.644531 21.988281 C 13.566406 22.023438 13.480469 22.035156 13.394531 22.03125 C 13.242188 22.039062 13.09375 21.988281 12.976562 21.898438 C 12.863281 21.804688 12.785156 21.679688 12.757812 21.535156 C 12.75 21.476562 12.75 21.417969 12.757812 21.359375 Z M 12.75 17.136719 "/>
<path style=" stroke:none;fill-rule:nonzero;fill:rgb(99.607843%,89.803922%,0%);fill-opacity:1;" d="M 16.253906 16.308594 C 16.289062 16.175781 16.371094 16.0625 16.484375 15.988281 C 16.609375 15.917969 16.746094 15.882812 16.886719 15.890625 L 17.191406 15.890625 C 17.339844 15.886719 17.488281 15.921875 17.617188 15.996094 C 17.753906 16.085938 17.851562 16.226562 17.890625 16.386719 L 19.496094 20.925781 C 19.539062 21.042969 19.574219 21.164062 19.601562 21.285156 C 19.605469 21.335938 19.605469 21.386719 19.601562 21.4375 C 19.605469 21.515625 19.589844 21.59375 19.558594 21.667969 C 19.527344 21.738281 19.480469 21.804688 19.425781 21.855469 C 19.367188 21.914062 19.300781 21.960938 19.226562 21.988281 C 19.152344 22.019531 19.070312 22.035156 18.992188 22.03125 C 18.867188 22.046875 18.742188 22.015625 18.636719 21.949219 C 18.53125 21.882812 18.453125 21.78125 18.414062 21.664062 L 18.074219 20.675781 L 15.964844 20.675781 L 15.625 21.664062 C 15.585938 21.785156 15.507812 21.886719 15.398438 21.953125 C 15.292969 22.019531 15.164062 22.046875 15.039062 22.03125 C 14.90625 22.035156 14.773438 21.996094 14.664062 21.914062 C 14.558594 21.828125 14.484375 21.707031 14.460938 21.574219 C 14.457031 21.53125 14.457031 21.484375 14.460938 21.4375 C 14.449219 21.359375 14.449219 21.277344 14.460938 21.199219 C 14.460938 21.109375 14.519531 21.011719 14.550781 20.925781 Z M 17.054688 17.359375 L 16.292969 19.769531 L 17.808594 19.769531 Z M 17.054688 17.359375 "/>
<path style=" stroke:none;fill-rule:nonzero;fill:rgb(99.607843%,89.803922%,0%);fill-opacity:1;" d="M 19.785156 16.566406 C 19.777344 16.386719 19.839844 16.210938 19.960938 16.074219 C 20.023438 16.011719 20.097656 15.964844 20.179688 15.933594 C 20.261719 15.902344 20.347656 15.886719 20.433594 15.890625 C 20.585938 15.890625 20.730469 15.9375 20.851562 16.027344 C 20.964844 16.121094 21.039062 16.253906 21.0625 16.398438 C 21.070312 16.453125 21.070312 16.507812 21.0625 16.566406 L 21.0625 20.789062 L 23.269531 20.789062 C 23.421875 20.785156 23.574219 20.828125 23.703125 20.910156 C 23.761719 20.945312 23.8125 20.992188 23.851562 21.050781 C 23.890625 21.105469 23.914062 21.171875 23.929688 21.238281 C 23.929688 21.238281 23.929688 21.320312 23.929688 21.359375 C 23.929688 21.4375 23.914062 21.519531 23.882812 21.589844 C 23.847656 21.664062 23.796875 21.726562 23.734375 21.777344 C 23.59375 21.878906 23.425781 21.929688 23.253906 21.929688 L 20.539062 21.929688 C 20.367188 21.941406 20.195312 21.894531 20.050781 21.800781 C 19.921875 21.703125 19.832031 21.558594 19.808594 21.398438 C 19.804688 21.3125 19.804688 21.222656 19.808594 21.132812 Z M 19.785156 16.566406 "/>
<path style=" stroke:none;fill-rule:nonzero;fill:rgb(99.607843%,89.803922%,0%);fill-opacity:1;" d="M 24.074219 16.566406 C 24.066406 16.386719 24.128906 16.210938 24.25 16.074219 C 24.371094 15.964844 24.523438 15.902344 24.6875 15.894531 C 24.847656 15.882812 25.007812 15.933594 25.140625 16.027344 C 25.253906 16.121094 25.332031 16.253906 25.355469 16.398438 C 25.359375 16.453125 25.359375 16.507812 25.355469 16.566406 L 25.355469 18.53125 L 27.386719 16.1875 C 27.464844 16.109375 27.550781 16.035156 27.636719 15.964844 C 27.71875 15.914062 27.8125 15.890625 27.910156 15.890625 C 28.050781 15.890625 28.1875 15.933594 28.304688 16.011719 C 28.359375 16.046875 28.40625 16.097656 28.441406 16.152344 C 28.476562 16.207031 28.5 16.269531 28.511719 16.332031 C 28.515625 16.347656 28.515625 16.363281 28.511719 16.382812 C 28.507812 16.398438 28.507812 16.417969 28.511719 16.4375 C 28.511719 16.523438 28.488281 16.605469 28.449219 16.679688 C 28.40625 16.757812 28.355469 16.828125 28.296875 16.894531 L 26.960938 18.355469 L 28.570312 20.84375 L 28.570312 20.925781 C 28.652344 21.039062 28.71875 21.167969 28.761719 21.304688 L 28.761719 21.34375 C 28.769531 21.4375 28.757812 21.53125 28.722656 21.617188 C 28.6875 21.703125 28.632812 21.78125 28.5625 21.839844 C 28.425781 21.941406 28.261719 21.996094 28.09375 21.992188 C 27.984375 21.996094 27.871094 21.972656 27.773438 21.921875 C 27.667969 21.847656 27.578125 21.753906 27.515625 21.640625 L 26.023438 19.230469 L 25.308594 19.976562 L 25.308594 21.320312 C 25.3125 21.5 25.25 21.671875 25.132812 21.808594 C 25.070312 21.871094 24.992188 21.917969 24.910156 21.949219 C 24.828125 21.980469 24.738281 21.996094 24.652344 21.992188 C 24.503906 21.996094 24.359375 21.949219 24.242188 21.855469 C 24.128906 21.765625 24.050781 21.636719 24.023438 21.496094 C 24.015625 21.4375 24.015625 21.378906 24.023438 21.320312 Z M 24.074219 16.566406 "/>
</g>
</svg>
