<svg width="43" height="43" viewBox="0 0 43 43" fill="none" xmlns="http://www.w3.org/2000/svg">
    <g clip-path="url(#nuwxtelmza)">
        <path d="M1.791 43h39.417V5.375A5.375 5.375 0 0 0 35.833 0H7.166a5.375 5.375 0 0 0-5.375 5.375V43zM5.375 5.375a1.792 1.792 0 0 1 1.791-1.792h28.667a1.792 1.792 0 0 1 1.792 1.792v34.042H5.375V5.375zm3.583 12.542h25.083V7.167H8.958v10.75zm3.583-7.167h17.917v3.583H12.541V10.75zM8.958 23.292h3.583v3.583H8.958v-3.583zm7.167 0h3.583v3.583h-3.583v-3.583zm10.75 0v3.583H23.29v-3.583h3.584zM8.958 30.458h3.583v3.584H8.958v-3.584zm7.167 0h3.583v3.584h-3.583v-3.584zm14.333-7.166h3.583v3.583h-3.583v-3.583zm-7.167 7.166h10.75v3.584h-10.75v-3.584z" fill="#374957"/>
    </g>
    <defs>
        <clipPath id="nuwxtelmza">
            <path fill="#fff" d="M0 0h43v43H0z"/>
        </clipPath>
    </defs>
</svg>
