<svg width="42" height="42" viewBox="0 0 42 42" fill="none" xmlns="http://www.w3.org/2000/svg">
    <g clip-path="url(#dws58jb58a)" fill="#000">
        <path d="m6.875 41.25 2.291-4.584 4.584-2.291-4.584-2.291L6.875 27.5l-2.291 4.584L0 34.374l4.584 2.292 2.291 4.584zM36.666 36.666l4.584-2.291-4.584-2.291-2.291-4.584-2.291 4.584-4.584 2.29 4.584 2.292 2.29 4.584 2.292-4.584zM22.916 4.584 20.626 0l-2.292 4.584-4.584 2.291 4.584 2.291 2.291 4.584 2.291-4.584L27.5 6.875l-4.584-2.291zM8.594 24.063a1.719 1.719 0 1 0 0-3.438 1.719 1.719 0 0 0 0 3.438zM1.719 17.188a1.719 1.719 0 1 0 0-3.438 1.719 1.719 0 0 0 0 3.438zM8.594 10.312a1.719 1.719 0 1 0 0-3.437 1.719 1.719 0 0 0 0 3.437zM1.719 3.438a1.719 1.719 0 1 0 0-3.438 1.719 1.719 0 0 0 0 3.438zM39.531 24.063a1.719 1.719 0 1 0 0-3.438 1.719 1.719 0 0 0 0 3.438zM32.656 17.188a1.719 1.719 0 1 0 0-3.438 1.719 1.719 0 0 0 0 3.438zM39.531 10.312a1.719 1.719 0 1 0 0-3.437 1.719 1.719 0 0 0 0 3.437zM32.656 3.438a1.719 1.719 0 1 0 0-3.438 1.719 1.719 0 0 0 0 3.438zM24.062 41.25a1.719 1.719 0 1 0 0-3.438 1.719 1.719 0 0 0 0 3.438zM17.188 34.375a1.719 1.719 0 1 0 0-3.437 1.719 1.719 0 0 0 0 3.437zM24.062 27.5a1.719 1.719 0 1 0 0-3.437 1.719 1.719 0 0 0 0 3.437zM17.188 20.625a1.719 1.719 0 1 0 0-3.438 1.719 1.719 0 0 0 0 3.438z"/>
    </g>
    <defs>
        <clipPath id="dws58jb58a">
            <path fill="#fff" d="M0 0h41.25v41.25H0z"/>
        </clipPath>
    </defs>
</svg>
