<svg width="43" height="43" viewBox="0 0 43 43" fill="none" xmlns="http://www.w3.org/2000/svg">
    <g clip-path="url(#gklezlgy6a)">
        <path d="M12.542 21.5H21.5v3.583h-8.958V21.5zm17.916-7.167H12.542v3.584h17.916v-3.584zm0-7.166H12.542v3.583h17.916V7.167zm5.375 27.67V43l-3.583-3.583L28.667 43v-8.163A7.143 7.143 0 0 1 32.25 21.5a7.061 7.061 0 0 1 1.792.254V5.375a1.792 1.792 0 0 0-1.792-1.792h-21.5a1.792 1.792 0 0 0-1.792 1.792v30.458h16.125v3.584H5.375V5.375A5.375 5.375 0 0 1 10.75 0h21.5a5.375 5.375 0 0 1 5.375 5.375v18.601a7.077 7.077 0 0 1-1.792 10.861zm0-6.17a3.583 3.583 0 1 0-7.165 0 3.583 3.583 0 0 0 7.165 0z" fill="#374957"/>
    </g>
    <defs>
        <clipPath id="gklezlgy6a">
            <path fill="#fff" d="M0 0h43v43H0z"/>
        </clipPath>
    </defs>
</svg>
