<svg width="42" height="42" viewBox="0 0 42 42" fill="none" xmlns="http://www.w3.org/2000/svg">
    <g clip-path="url(#px3qxy0kfa)" fill="#374957">
        <path d="M20.625 3.438a17.242 17.242 0 0 1 12.241 5.156h-7.085v3.437h8.84a3.195 3.195 0 0 0 3.192-3.191V0h-3.438v5.29A20.594 20.594 0 0 0 0 20.625h3.438A17.206 17.206 0 0 1 20.625 3.438zM37.813 20.625A17.163 17.163 0 0 1 8.384 32.656h7.085V29.22h-8.84a3.195 3.195 0 0 0-3.191 3.191v8.84h3.437v-5.29A20.595 20.595 0 0 0 41.25 20.625h-3.437z"/>
    </g>
    <defs>
        <clipPath id="px3qxy0kfa">
            <path fill="#fff" d="M0 0h41.25v41.25H0z"/>
        </clipPath>
    </defs>
</svg>
