<svg width="18" height="19" viewBox="0 0 18 19" fill="none" xmlns="http://www.w3.org/2000/svg">
    <g clip-path="url(#s4oa0rlx7a)">
        <path d="M17.22 9.5a.737.737 0 0 0-.742.656 7.522 7.522 0 1 1-2.13-5.906h-2.342a.75.75 0 1 0 0 1.5h3.107c.77 0 1.393-.624 1.393-1.393V1.25a.75.75 0 0 0-1.5 0v1.558a8.989 8.989 0 1 0 2.962 7.517.755.755 0 0 0-.749-.825z" fill="#fff"/>
    </g>
    <defs>
        <clipPath id="s4oa0rlx7a">
            <path fill="#fff" transform="translate(0 .5)" d="M0 0h18v18H0z"/>
        </clipPath>
    </defs>
</svg>
