<svg width="42" height="42" viewBox="0 0 42 42" fill="none" xmlns="http://www.w3.org/2000/svg">
    <g clip-path="url(#uuze46nq9a)" fill="#374957">
        <path d="M15.469 20.625A10.312 10.312 0 1 0 5.156 10.312 10.323 10.323 0 0 0 15.47 20.625zm0-17.188a6.875 6.875 0 1 1 0 13.75 6.875 6.875 0 0 1 0-13.75zM36.093 17.186V12.03h-3.437v5.156H27.5v3.438h5.156v5.156h3.438v-5.156h5.156v-3.438h-5.157zM22.418 24.064H8.52A8.53 8.53 0 0 0 0 32.584v8.667h3.438v-8.668a5.088 5.088 0 0 1 5.082-5.082h13.898a5.088 5.088 0 0 1 5.082 5.082v8.668h3.438v-8.668a8.53 8.53 0 0 0-8.52-8.52z"/>
    </g>
    <defs>
        <clipPath id="uuze46nq9a">
            <path fill="#fff" d="M0 0h41.25v41.25H0z"/>
        </clipPath>
    </defs>
</svg>
